<svg xmlns="http://www.w3.org/2000/svg" viewBox="0 0 100 100" width="100" height="100" role="img">
  <title>Digivice icon</title>
  <g fill="none" stroke="currentColor" stroke-width="3" stroke-linecap="round" stroke-linejoin="round">
    <path d="M20 35 Q20 18 35 18 L65 18 Q80 18 80 35 L80 65 Q80 82 65 82 L35 82 Q20 82 20 65 Z"/>
    <circle cx="50" cy="47" r="14"/>
    <rect x="43" y="40" width="14" height="14" rx="2"/>
    <circle cx="28" cy="47" r="5"/>
    <ellipse cx="72" cy="43" rx="4" ry="3"/>
    <ellipse cx="72" cy="53" rx="4" ry="3"/>
    <path d="M40 18 L40 12 L60 12 L60 18"/>
    <rect x="36" y="79" width="7" height="6" rx="1"/>
    <rect x="57" y="79" width="7" height="6" rx="1"/>
    <rect x="14" y="40" width="6" height="7" rx="1"/>
    <rect x="80" y="40" width="6" height="7" rx="1"/>
    <circle cx="23" cy="22" r="4" fill="currentColor"/>
  </g>
</svg>
